<?xml version="1.0" encoding="UTF-8"?>
<!DOCTYPE svg PUBLIC "-//W3C//DTD SVG 1.1//EN" "http://www.w3.org/Graphics/SVG/1.1/DTD/svg11.dtd">
<!-- Creator: CorelDRAW 2021 (64 Bit) -->
<svg xmlns="http://www.w3.org/2000/svg" xml:space="preserve" width="25.3987mm" height="25.3986mm" version="1.1" style="shape-rendering:geometricPrecision; text-rendering:geometricPrecision; image-rendering:optimizeQuality; fill-rule:evenodd; clip-rule:evenodd"
viewBox="0 0 1642.01 1642.01"
 xmlns:xlink="http://www.w3.org/1999/xlink"
 xmlns:xodm="http://www.corel.com/coreldraw/odm/2003">
 <defs>
  <style type="text/css">
   <![CDATA[
    .fil0 {fill:white}
   ]]>
  </style>
 </defs>
 <g id="Camada_x0020_1">
  <metadata id="CorelCorpID_0Corel-Layer"/>
  <g id="_1842661175872">
   <path class="fil0" d="M203.84 1259.16l1234.33 0c112.15,0 203.84,86.11 203.84,191.42l0 0c0,105.31 -91.75,191.42 -203.84,191.42l-1234.33 0c-112.15,0 -203.84,-86.18 -203.84,-191.42l0 0c0,-105.31 91.75,-191.42 203.84,-191.42zm0 -1259.16l1234.33 0c112.15,0 203.84,86.11 203.84,191.42l0 0c0,105.31 -91.75,191.42 -203.84,191.42l-1234.33 0c-112.15,0 -203.84,-86.11 -203.84,-191.42l0 0c0,-105.31 91.75,-191.42 203.84,-191.42zm0 629.59l1234.33 0c112.15,0 203.84,86.11 203.84,191.42l0 0c0,105.31 -91.75,191.41 -203.84,191.41l-1234.33 0c-112.15,0 -203.84,-86.11 -203.84,-191.41l0 0c0,-105.31 91.75,-191.42 203.84,-191.42z"/>
  </g>
 </g>
</svg>
